# xmcd
#
# Track frame offsets:
#	150
#	15319
#	31971
#	44905
#	61316
#	76096
#	89996
#	104373
#	114981
#	126800
#
# Disc length: 1929 seconds
#
# Revision: 0
# Processed by: cddbd v1.5.2PL0 Copyright (c) Steve Scherf et al.
# Submitted via: EasyCDDAExtractor 8.2.3.1
#
DISCID=7e07870a
DTITLE=Hank Horton - A World Of Many Heartaches
DYEAR=2006
DGENRE=Country
TTITLE0=If They Only Knew (The Truth About You)
TTITLE1=Someone You Can Count On
TTITLE2=I Miss Your Arms Around Me
TTITLE3=A World Of Many Heartaches
TTITLE4=The Life Of A Truck Drivin' Man
TTITLE5=Someday We'll Be Together
TTITLE6=The Story Of Hank Williams
TTITLE7=Daddy And Me
TTITLE8=No More Love Sick Blues
TTITLE9=Weepin' Water Falls
EXTD=
EXTT0=
EXTT1=
EXTT2=
EXTT3=
EXTT4=
EXTT5=
EXTT6=
EXTT7=
EXTT8=
EXTT9=
PLAYORDER=
